<svg width="289" height="295" viewBox="0 0 289 295" fill="none" xmlns="http://www.w3.org/2000/svg">
<path d="M220.633 19.6918C221.577 12.3969 230.687 2.08392 229.461 0C226.463 3.07504 216.461 8.5 212.073 16.0948C211.053 10.523 207.303 6.10318 204.97 5.66466C203.208 11.1313 207.713 24.9555 208.961 27.5C209.999 29.6175 210.653 30.7352 212.864 30.3198C213.005 30.4925 213.156 30.654 213.315 30.804C174.461 114 147.836 183.182 159.295 255.349L160.379 262.176L154.882 237.448C146.842 201.274 133.803 166.247 116.236 133.622C113.47 102.383 119.432 107.48 131.781 91.4687C131.809 91.4851 131.825 91.4934 131.825 91.4934C131.825 91.4934 135.97 94.8829 139.168 87.1753L140.969 79.4017C140.975 79.3929 140.977 79.3879 140.977 79.3853C140.977 79.3806 140.97 79.3829 140.97 79.3829L140.969 79.4017C140.892 79.508 140.158 80.1811 133.074 84.2133C127.939 88.0103 129.638 89.7317 130.97 90.8829C119.027 106.382 112.47 101.383 114.843 131.058C95.9697 99.8829 62.9211 85.7689 34.885 58.0987L34.9697 58.0085L31.8927 50.1073C32.4832 48.9103 32.6091 47.4855 32.1295 46.1276C31.1857 43.4553 23.5186 30.186 20.5498 28.7509C19.4808 30.6702 20.1053 37.1728 20.9594 42.4759C14.0634 39.9163 2.30611 36.1049 -6.86646e-05 36.8311C2.32229 40.444 10.0749 46.2626 15.5302 50.0081C10.8305 51.9868 5.6807 54.6477 4.72902 56.8223C9.65976 59.7675 22.8468 57.8635 25.6067 57.2195C25.7773 57.1797 25.9438 57.1318 26.106 57.0763L33.3388 59.3829C65.5448 91.3681 105.47 101.883 129.471 165.525C114.843 144.883 95.9726 148.123 73.9699 148.877L73.9506 148.697L71.6756 147.896C70.9371 146.012 69.0774 143.798 64.4209 145.612L56.4699 150.989C56.4403 150.983 56.4523 150.996 56.4523 150.996L56.4699 150.989C56.5984 151.017 57.7673 151.418 64.4209 152.383C70.2275 155.383 71.4435 152.668 71.9502 150.989L73.741 149.886C96.9311 149.001 116.236 145.612 131.191 169.562C140.416 191.539 147.709 214.395 152.93 237.882L163.16 283.904L152.699 259.36C130.902 208.219 80.8617 175.343 25.9012 175.055L25.8773 174.696L15.582 170.599L16.35 182.12L25.3684 177.053C79.7411 177.131 129.308 209.578 150.859 260.144L165.566 294.649L167.473 294.1L164.742 276.897C153.273 204.668 190.97 179.883 277.47 155.383L287.97 160.883L288.47 147.383L276.308 153.31L276.389 153.63C214.804 173.623 161.312 188.992 160.904 252.685C149.955 181.233 175.961 115 215.062 31.8828C216.511 32.4145 218.182 32.2889 219.585 31.3969C221.977 29.8765 236.23 21.7154 236.961 18.5C234.85 17.8897 225.608 17.6675 220.633 19.6918Z" fill="black"/>
</svg>
