<svg width="266" height="326" viewBox="0 0 266 326" fill="none" xmlns="http://www.w3.org/2000/svg">
<path d="M178.672 21.6918C179.616 14.3969 180.687 2.08392 179.461 0C176.462 3.07504 172.535 11.9371 170.112 18.0948C167.128 13.9601 163.377 9.54027 161.044 9.10176C159.283 14.5684 164.102 26.9899 165.35 29.5344C166.389 31.652 168.692 32.7352 170.903 32.3198C171.044 32.4925 171.195 32.654 171.354 32.804C141.935 119.909 138.366 214.3 149.825 286.467L150.909 293.293L145.413 268.565C137.372 232.392 124.334 197.364 106.766 164.74C103.407 144.764 108.539 124.307 120.888 108.295C120.916 108.312 120.932 108.32 120.932 108.32C120.932 108.32 127.714 110.92 128.053 103.002L128.392 95.1027C128.399 95.0938 128.401 95.0889 128.4 95.0862C128.4 95.0815 128.393 95.0838 128.393 95.0838L128.392 95.1027C128.315 95.209 127.582 95.882 121.959 100.04C116.824 103.837 118.745 106.558 120.077 107.709C108.134 123.208 102.858 142.812 105.373 162.175C86.6224 127.948 62.9212 96.4594 34.885 68.7892L34.9698 68.699L31.8928 60.7977C32.4833 59.6008 32.6092 58.176 32.1296 56.818C31.1857 54.1458 23.5187 40.8765 20.5499 39.4414C19.4809 41.3607 20.1054 47.8633 20.9595 53.1663C14.0634 50.6068 2.30618 46.7954 0 47.5216C2.32236 51.1345 10.0749 56.9531 15.5303 60.6986C10.8305 62.6773 5.68077 65.3382 4.72909 67.5127C9.65983 70.458 22.8469 68.554 25.6068 67.9099C25.7773 67.8701 25.9439 67.8223 26.1061 67.7668L33.3389 70.0733C70.2322 106.449 99.5912 149.467 120.001 196.642C106.47 179.347 85.4365 169.512 63.4338 170.267L63.4145 170.087L61.1395 169.286C60.401 167.402 58.5413 165.187 53.8848 167.001L46.5178 169.871C46.4882 169.865 46.5002 169.878 46.5002 169.878L46.5178 169.871C46.6462 169.899 47.5576 170.3 53.6272 173.773C59.2016 176.962 60.9074 174.058 61.4141 172.379L63.2049 171.276C86.395 170.391 108.523 181.448 121.722 200.679C130.947 222.656 138.24 245.512 143.46 268.999L153.69 315.021L143.229 290.477C121.432 239.336 71.3918 206.46 16.4313 206.172L16.4074 205.814L6.11204 201.716L6.88012 213.237L15.8985 208.17C70.2711 208.248 119.838 240.696 141.389 291.261L156.096 325.767L158.004 325.217L155.272 308.014C143.803 235.786 186.967 166.604 255.718 144.532L265.912 146.574L263.081 135.379L254.556 142.459L254.637 142.779C193.052 162.773 151.842 220.109 151.434 283.802C140.486 212.35 144.249 119.585 173.101 33.8828C174.55 34.4145 176.221 34.2889 177.625 33.3969C180.016 31.8765 191.223 21.423 191.954 18.2076C189.843 17.5973 183.647 19.6675 178.672 21.6918Z" fill="black"/>
</svg>
