<svg width="58" height="73" viewBox="0 0 58 73" fill="none" xmlns="http://www.w3.org/2000/svg">
<path d="M6.49983 30.5C-2.00031 41 0.166497 51.8333 2.49983 57.5C2.49983 57.5 4.5 47.4998 15 40.5C25.5 33.5002 34.4999 31.5 34.4999 31.5C34.4999 31.5 15 42.5 9.99985 48.5C4.99971 54.5 3.21665 63.4514 2.49983 72.5H4.99985C4.5 66.5 5.5 63 6.49983 60.5C19.3698 65.7718 25.9583 65.8632 36.4999 60.5C31.7655 56.923 30.7482 54.6728 29.9999 50.5C33.9954 55.7194 36.0351 56.9051 39.4999 57.5C46.311 52.632 48.1963 50.0324 49.9999 45.5C45.8417 43.4972 43.7097 42.0263 40.9999 37.5C44.8531 40.0427 47.3564 40.7229 52.4999 40.5C57.2658 32.7009 57.4215 28.6259 56.4999 21.5C52.2512 23.4999 50.1088 23.6352 46.4999 23C51.0051 21.5763 53.4599 20.2633 57.4999 15.5C57.4019 6.7835 56.0269 3.79208 52.4999 0C43.5 25.5 15 20 6.49983 30.5Z" fill="black"/>
</svg>
