<svg width="100" height="61" viewBox="0 0 100 61" fill="none" xmlns="http://www.w3.org/2000/svg">
<path d="M5.99999 2.50007L0.500002 14.0001C9.38995 11.9529 20.8806 8.63145 28.5652 10.3524C28.5652 10.3524 17.4348 10.5 23 29.5C28.5652 48.5 36.5097 49.1854 48.5 55.5C68.3534 64.178 87.6051 59.9005 99.5 51.6559C91.1479 48.8118 78.9082 41.3543 76 33.0001C73.0918 24.6459 74.114 13.6528 64.5 5.11921C54.886 -3.41434 41.9461 0.232089 33.6263 5.11923C39.6543 8.3375 52.2509 16.3096 54.413 22.4517C34.6796 4.20792 12.6186 0.365656 5.99999 2.50007Z" fill="black"/>
</svg>
