<svg width="351" height="168" viewBox="0 0 351 168" fill="none" xmlns="http://www.w3.org/2000/svg">
<path d="M9.5 116.5C-2.77274 53.5527 1.94444 29.7148 4.44082 22.5171C5.07358 20.6926 6.25824 19.1701 7.56884 17.7519V17.7519C14.8562 9.86629 25.1019 5.38225 35.8392 5.38225C50.1959 5.38225 70.8427 5.38225 85.9219 5.38225C107.254 5.38225 162.177 7.13178 179.562 7.70371C183.144 7.82157 186.678 7.57333 190.216 6.99919C203.287 4.87803 236.973 -0.213988 250 1.38222C261.4 2.7792 297.857 3.20041 318.805 3.3274C327.579 3.38059 334.69 10.3578 340.422 17V17C345.6 23 342.5 75.5 344.5 88C346.5 100.5 352.1 145.382 348.1 153.882C344.646 161.224 336.64 162.97 334.522 163.31C334.172 163.366 333.825 163.41 333.474 163.465V163.465C318.812 165.786 279.422 163.511 264.58 163.23C257.609 163.098 249.213 163.127 239.1 163.382C176.119 164.975 153.872 166.36 150.5 166C147.128 165.64 106.278 161.882 95.1002 163.382C85.3198 164.695 41.6697 163.71 30.9053 163.444C29.3024 163.404 27.7046 163.299 26.1164 163.079C19.4188 162.15 8.10016 159.77 8.10016 151.382C8.10016 144.13 6.64328 131.633 5.95383 126.125C5.72426 124.291 5.57557 122.484 5.51865 120.637C5.18222 109.717 3.82289 69.4934 1.78909 60C-0.570294 48.987 8.1002 24.3822 15.6002 19.8822" stroke="black" stroke-width="2" stroke-linecap="round"/>
</svg>
