<svg width="347" height="169" viewBox="0 0 347 169" fill="none" xmlns="http://www.w3.org/2000/svg">
<path d="M4.10016 70.8822L1.97476 25.824C1.73687 20.7808 3.70398 15.8836 7.36431 12.4063V12.4063C10.1126 9.79537 13.6367 8.15399 17.4075 7.76454C30.3575 6.42701 62.0228 3.38222 81.9219 3.38222C103.626 3.38222 160.103 5.19333 176.437 5.73253C179.441 5.8317 182.413 5.67133 185.394 5.28431C197.409 3.7244 230.371 -0.238868 243.6 1.38222C254.678 2.73966 289.414 3.17578 310.59 3.3159C320.92 3.38424 329.673 10.062 336.422 17.8822V17.8822C341.6 23.8822 339.6 73.3822 341.6 85.8822C343.6 98.3822 348.1 143.382 344.1 151.882C342.806 154.632 341.251 157.434 339.738 159.967C336.237 165.829 329.286 168.441 322.615 166.986V166.986C310.509 164.346 283.101 160.604 270.711 160.716C262.03 160.794 250.477 160.993 235.1 161.382C172.119 162.975 155.972 165.242 152.6 164.882C149.228 164.522 102.278 159.882 91.1002 161.382C81.7531 162.636 41.4159 164.24 28.4511 164.732C25.7553 164.834 23.0573 164.78 20.465 164.033C13.7307 162.093 4.10016 157.14 4.10016 149.382C4.10016 142.844 2.91613 132.044 2.17775 125.944C1.80998 122.906 1.66478 119.872 1.7777 116.814C2.27925 103.231 3.54819 63.4756 1.60006 54.3822C-0.759318 43.3692 4.1002 22.3822 11.6001 17.8822" stroke="black" stroke-width="2" stroke-linecap="round"/>
</svg>
