<svg width="38" height="38" viewBox="0 0 38 38" fill="none" xmlns="http://www.w3.org/2000/svg">
<path d="M29.2206 8.76774C28.123 7.61495 27.4128 6.0978 26.1712 5.06831C24.8003 3.93165 23.2592 2.87367 21.5427 2.42298C20.6085 2.1777 18.3214 2.35755 17.3712 2.42298C15.9191 2.52299 15.0156 2.76901 13.6165 3.14999L13.581 3.15965C12.2218 3.52973 11.116 4.021 9.91085 4.78632C8.99069 5.37065 8.17251 5.97751 7.41442 6.77368C5.02485 9.28328 3.64703 11.2761 2.58139 14.6895C2.20591 15.8923 2.02187 17.2319 2.00603 18.4964C1.99061 19.7272 1.99366 20.9928 2.15307 22.2126C2.44912 24.4779 3.4253 26.654 4.32026 28.7218C6.18446 33.0291 12.6334 36 16.4237 36C19.5235 36 20.6061 35.9403 23.6268 35.1472C25.0754 34.7668 26.3761 34.0941 27.6543 33.3008C29.4784 32.1688 32.6028 29.8585 33.7883 28.0387C35.0564 26.0922 35.7338 24.0313 35.9523 21.6218C36.0719 20.3033 35.9429 18.9839 35.8245 17.6706C35.7175 16.4845 35.3732 15.3572 35.1181 14.2028C34.8621 13.0448 34.3763 11.8293 33.7883 10.8122C33.2228 9.83391 32.421 8.83601 31.554 8.13662C30.5215 7.30372 29.5975 6.31121 28.5014 5.56851C26.3433 4.10626 23.0358 2.0887 20.4176 2M25.3467 13.6115C25.2024 13.6283 25.0122 13.8334 24.8992 13.9136C24.5205 14.1821 24.1669 14.4857 23.7868 14.7528C22.9322 15.3535 22.051 15.9246 21.3191 16.6932C20.6102 17.4377 20.0523 18.3019 19.3757 19.0633C19.2047 19.2556 19.0177 19.507 19.0177 19.7749C19.0177 20.0448 19.3689 20.1665 19.5547 20.2919C20.0308 20.6134 20.5263 20.9019 21.0027 21.2252C22.0595 21.9424 22.9511 22.8382 23.9722 23.5986C24.5691 24.0431 25.0667 24.5568 25.5768 25.0925M16.7162 12.9468C16.5994 12.9468 16.5467 13.001 16.4509 13.071C16.1846 13.2655 15.8931 13.4249 15.6039 13.5779C14.6469 14.0841 13.7071 14.6338 12.8485 15.3101C12.1578 15.8542 11.4237 16.3234 10.8348 16.9953C10.3887 17.5043 9.95978 18.0026 9.58175 18.5698C9.44548 18.7742 9.179 19.1828 9.179 19.4426C9.179 19.7195 9.78116 19.9357 9.97172 20.0637C11.3629 20.9975 12.2318 21.213 13.581 22.2126C14.7094 23.0486 15.405 24.1415 16.4237 25.0925" stroke="#272727" stroke-width="3" stroke-linecap="round"/>
</svg>
