<svg width="38" height="38" viewBox="0 0 38 38" fill="none" xmlns="http://www.w3.org/2000/svg">
<path d="M16.5097 2.69399C15.7821 2.69399 14.915 3.10573 14.2902 3.46543C14.1819 3.52776 14.0718 3.58834 13.9602 3.64744M13.9602 3.64744C14.4101 2.94543 14.9892 2.34004 15.8456 2.12747C16.5907 1.94254 17.5541 1.98655 18.3164 2.08528C21.0658 2.4414 23.9829 2.48954 26.5661 3.62514C28.7943 4.60466 30.7837 6.52409 32.0878 8.57019C32.9261 9.88532 33.5523 11.3054 34.3013 12.6685C35.4649 14.786 35.5917 15.9635 35.7969 18.3754C35.9008 19.5961 36.1967 22.3239 35.7969 23.4746C35.3382 24.795 34.8113 26.1144 34.0889 27.3167C33.4853 28.3215 32.8179 29.2635 32.1327 30.2127C31.4081 31.2164 30.5093 32.201 29.4855 32.9067C28.5145 33.576 27.4758 33.9851 26.4165 34.4797C25.8248 34.7559 25.1997 34.9443 24.5859 35.1607C23.9954 35.3689 23.3954 35.4738 22.7972 35.6519C22.1373 35.8483 21.5512 35.9701 20.8589 35.9954C20.1316 36.0221 19.3983 35.9248 18.6723 35.893C17.2996 35.8329 16.003 35.5013 14.6611 35.227C13.1145 34.9109 11.554 34.2941 10.1594 33.5546C6.9873 31.8726 5.37072 29.3874 3.69539 26.3735C2.88285 24.9118 2.62011 22.962 2.18783 21.3652C1.90372 20.3157 2.0263 19.1368 2.0263 18.0565C2.0263 16.1778 2.58465 14.2072 3.48222 12.6248C3.97572 11.7548 4.43358 10.9288 5.38494 9.7495C6.3363 8.57019 7.16195 7.57118 8.20312 6.75911C9.18384 5.9942 10.3398 5.29717 11.4665 4.78833C12.2851 4.41864 13.1607 4.07097 13.9602 3.64744ZM13.9602 3.64744C13.8315 3.84836 13.7133 4.0572 13.6022 4.267M13.7099 14.4102C13.7099 15.6496 13.9011 16.8883 13.9791 18.1258C14.0674 19.526 14.292 20.9119 14.3979 22.3114C14.4964 23.6137 14.4637 24.9279 14.4637 26.2349M21.6246 13.2169C21.6246 14.3057 21.8805 15.3678 22.0284 16.4443C22.2208 17.8437 22.3627 19.3018 22.3784 20.7143C22.3993 22.5895 22.4322 24.466 22.4322 26.3434" stroke="#272727" stroke-width="3" stroke-linecap="round"/>
</svg>
