<svg width="350" height="169" viewBox="0 0 350 169" fill="none" xmlns="http://www.w3.org/2000/svg">
<path d="M7.31144 70.5L5.02162 21.956C4.88326 19.023 5.40688 16.0964 6.55365 13.3933V13.3933C9.72021 5.9293 17.1625 1.19187 25.2653 1.48241L137.311 5.5H225.014C229.851 5.5 234.661 4.77081 239.281 3.33702V3.33702C244.268 1.78932 249.474 1.06339 254.694 1.18768L318.42 2.70496C326.567 2.89894 334.592 4.94006 341.659 8.99686C344.215 10.4635 346.448 11.8095 347.311 12.5C349.811 14.5 342.811 73 344.811 85.5C346.811 98 351.311 143 347.311 151.5V151.5C341.907 162.985 329.095 168.411 316.438 167.446L279.062 164.595C278.228 164.532 277.398 164.448 276.568 164.347C271.021 163.674 248.363 161 238.311 161C226.811 161 170.811 164.5 155.811 164.5C140.811 164.5 124.811 158.5 94.3114 161C71.8519 162.841 41.8008 163.869 27.5174 164.282C22.0671 164.44 16.3472 163.643 13.1088 159.256C12.1715 157.986 11.2159 156.422 10.3114 154.5C7.61611 148.772 4.46675 136.234 2.69903 128.664C1.74341 124.572 1.38101 120.401 1.4983 116.2C1.94403 100.236 2.91756 58.8337 1.31143 50C-0.688576 39 7.31144 19 14.8114 17.5" stroke="black" stroke-width="2" stroke-linecap="round"/>
</svg>
