<svg width="38" height="38" viewBox="0 0 38 38" fill="none" xmlns="http://www.w3.org/2000/svg">
<path d="M8.77939 8.76774C9.87705 7.61495 10.5872 6.0978 11.8288 5.06831C13.1997 3.93165 14.7408 2.87367 16.4573 2.42298C17.3915 2.1777 19.6786 2.35755 20.6288 2.42298C22.0809 2.52299 22.9844 2.76901 24.3835 3.14999L24.419 3.15965C25.7782 3.52973 26.884 4.021 28.0891 4.78632C29.0093 5.37065 29.8275 5.97751 30.5856 6.77368C32.9751 9.28328 34.353 11.2761 35.4186 14.6895C35.7941 15.8923 35.9781 17.2319 35.994 18.4964C36.0094 19.7272 36.0063 20.9928 35.8469 22.2126C35.5509 24.4779 34.5747 26.654 33.6797 28.7218C31.8155 33.0291 25.3666 36 21.5763 36C18.4765 36 17.3939 35.9403 14.3732 35.1472C12.9246 34.7668 11.6239 34.0941 10.3457 33.3008C8.52157 32.1688 5.39722 29.8585 4.21167 28.0387C2.94356 26.0922 2.26617 24.0313 2.04767 21.6218C1.92811 20.3033 2.05705 18.9839 2.17553 17.6706C2.28252 16.4845 2.62677 15.3572 2.88194 14.2028C3.1379 13.0448 3.62369 11.8293 4.21167 10.8122C4.7772 9.83391 5.57901 8.83601 6.44598 8.13662C7.47846 7.30372 8.40247 6.31121 9.49859 5.56851C11.6567 4.10626 14.9642 2.0887 17.5824 2M12.6533 13.6115C12.7976 13.6283 12.9878 13.8334 13.1008 13.9136C13.4795 14.1821 13.8331 14.4857 14.2132 14.7528C15.0678 15.3535 15.949 15.9246 16.6809 16.6932C17.3898 17.4377 17.9477 18.3019 18.6243 19.0633C18.7953 19.2556 18.9823 19.507 18.9823 19.7749C18.9823 20.0448 18.6311 20.1665 18.4453 20.2919C17.9692 20.6134 17.4737 20.9019 16.9973 21.2252C15.9405 21.9424 15.0489 22.8382 14.0278 23.5986C13.4309 24.0431 12.9333 24.5568 12.4232 25.0925M21.2838 12.9468C21.4006 12.9468 21.4533 13.001 21.5491 13.071C21.8154 13.2655 22.1069 13.4249 22.3961 13.5779C23.3531 14.0841 24.2929 14.6338 25.1515 15.3101C25.8422 15.8542 26.5763 16.3234 27.1652 16.9953C27.6113 17.5043 28.0402 18.0026 28.4182 18.5698C28.5545 18.7742 28.821 19.1828 28.821 19.4426C28.821 19.7195 28.2188 19.9357 28.0283 20.0637C26.6371 20.9975 25.2541 21.9511 23.9049 22.9507C22.7764 23.7867 21.8997 24.8666 20.881 25.8176" stroke="#272727" stroke-width="3" stroke-linecap="round"/>
</svg>
