<svg width="38" height="38" viewBox="0 0 38 38" fill="none" xmlns="http://www.w3.org/2000/svg">
<path d="M20.5 16.5C18.8728 15.3032 16 13.5 15.5 13.5C15 13.5 15 25.5 15.3728 25.5C16.5474 25.5 24.5 20.5 24.3728 20.3032C24.2457 20.1063 22.1272 17.6968 20.5 16.5Z" fill="#272727"/>
<path d="M14.8488 3.52099C14.2382 3.60731 13.161 3.82288 11.9916 4.1825M11.9916 4.1825C10.9741 4.49539 9.88678 4.91733 8.97599 5.45806C7.01838 6.6203 7.01838 6.91087 6.52897 7.39513C6.03957 7.87939 -1.10571 17.7584 3.59256 26.2815C9.46539 36.9354 18.2746 35.4826 20.7217 35.9669C23.1687 36.4512 35.4037 31.6085 35.8931 22.4074C36.3825 13.2063 35.5004 9.18611 26.5945 3.52099C22.1032 0.664021 15.7192 2.38496 11.9916 4.1825ZM11.9916 4.1825C10.0327 5.12715 8.8074 6.09295 8.97599 6.4266M15.5 13.5C16 13.5 18.8728 15.3032 20.5 16.5C22.1272 17.6968 24.2457 20.1063 24.3728 20.3032C24.5 20.5 16.5474 25.5 15.3728 25.5C15 25.5 15 13.5 15.5 13.5Z" stroke="#272727" stroke-width="3" stroke-linecap="round"/>
</svg>
